inDegrees=no
num_controls=7
num_derivatives=13
num_iterations=172
num_multipliers=7
num_parameters=0
num_slacks=7
num_states=26
objective=5.547078
objective_accelerations=0.670528
objective_balance=0.036802
objective_effort=0.248073
objective_height=4.524455
objective_ligament=0.067220
solver_duration=1903.973025
status=Solve_Succeeded
success=true
DataType=double
version=3
OpenSimVersion=4.4-2022-07-23-0e9fedc
endheader
time	/jointset/ground_pelvis/pelvis_tilt/value	/jointset/ground_pelvis/pelvis_tx/value	/jointset/ground_pelvis/pelvis_ty/value	/jointset/hip_l/hip_flexion_l/value	/jointset/hip_l/hip_adduction_l/value	/jointset/hip_l/hip_rotation_l/value	/jointset/back/lumbar_extension/value	/jointset/patellofemoral_l/patellar_flexion_l/value	/jointset/knee_l/knee_flexion_l/value	/jointset/knee_l/knee_adduction_l/value	/jointset/knee_l/knee_rotation_l/value	/jointset/ankle_l/ankle_angle_l/value	/jointset/subtalar_l/subtalar_angle_l/value	/jointset/ground_pelvis/pelvis_tilt/speed	/jointset/ground_pelvis/pelvis_tx/speed	/jointset/ground_pelvis/pelvis_ty/speed	/jointset/hip_l/hip_flexion_l/speed	/jointset/hip_l/hip_adduction_l/speed	/jointset/hip_l/hip_rotation_l/speed	/jointset/back/lumbar_extension/speed	/jointset/patellofemoral_l/patellar_flexion_l/speed	/jointset/knee_l/knee_flexion_l/speed	/jointset/knee_l/knee_adduction_l/speed	/jointset/knee_l/knee_rotation_l/speed	/jointset/ankle_l/ankle_angle_l/speed	/jointset/subtalar_l/subtalar_angle_l/speed	/forceset/tau_hip_flexion_l	/forceset/tau_hip_adduction_l	/forceset/tau_hip_rotation_l	/forceset/tau_knee_flexion_l	/forceset/tau_ankle_angle_l	/forceset/tau_subtalar_angle_l	/forceset/tau_lumbar_extension	lambda_cid13_p0	lambda_cid13_p1	lambda_cid13_p2	lambda_cid13_p3	lambda_cid13_p4	lambda_cid13_p5	lambda_cid14_p0	/jointset/ground_pelvis/pelvis_tilt/accel	/jointset/ground_pelvis/pelvis_tx/accel	/jointset/ground_pelvis/pelvis_ty/accel	/jointset/hip_l/hip_flexion_l/accel	/jointset/hip_l/hip_adduction_l/accel	/jointset/hip_l/hip_rotation_l/accel	/jointset/back/lumbar_extension/accel	/jointset/patellofemoral_l/patellar_flexion_l/accel	/jointset/knee_l/knee_flexion_l/accel	/jointset/knee_l/knee_adduction_l/accel	/jointset/knee_l/knee_rotation_l/accel	/jointset/ankle_l/ankle_angle_l/accel	/jointset/subtalar_l/subtalar_angle_l/accel	gamma_cid13_p0	gamma_cid13_p1	gamma_cid13_p2	gamma_cid13_p3	gamma_cid13_p4	gamma_cid13_p5	gamma_cid14_p0
0	-0.04114917288132474	0.06963215298772082	0.8960165288573926	0.1955292361009247	-0.3213140611285705	-0.4971293157279302	-0.137903700187828	0.07015350928390653	0.07015350928391206	-0.1745329251994329	-0.130910225917895	-0.06701017130107029	0.00471971535747135	0	0	0	0	0	0	0	0	0	0	0	0	0	0.1093941958047938	-0.130620235080078	-0.03730055060008713	-0.2710898570887217	0.2591645057415749	-0.007668101489576346	-0.04860469435513014	48.17347550082498	-7.555865069576076	3.668662778921117	-29.84222041710338	-516.8744504735574	-89.86371231892959	-40.27042156227659	-2.999709798933361	-0.8747086732037276	-0.8260741470054962	10.09029246478044	-2.279638023769179	3.531362686901756	-2.581052274355427	10.92708565264155	10.927085652641	0.9037661609713025	-0.7270957801705088	4.063378157237297	-0.2838387537977498	-5.078966918736246e-08	1.334019195145651e-07	1.569107907655963e-07	2.98393362799542e-08	-4.407912858957282e-08	-8.330117884418832e-08	-8.883858682740984e-09
0.01	-0.04129034864464258	0.06958880596315184	0.8959765135053608	0.1960157965202964	-0.3214260135984005	-0.4969511930113358	-0.1380380553398279	0.07068478494233767	0.07068478494235435	-0.1744907844402116	-0.130939551303984	-0.06681313976122816	0.004704345609842104	-0.02807577631347233	-0.008665693319772502	-0.007978551223082419	0.09690185298945139	-0.02227083982854658	0.03548369383924405	-0.02665184462675498	0.1057811057419071	0.1057811057419016	0.008416546817931622	-0.00582609882273737	0.03919109542729887	-0.003061715073181675	0.1038145457899285	-0.1268831804530863	-0.03595157723109583	-0.2618913936890535	0.245934263256616	-0.004959343079526455	-0.04419603722361371	43.97906337935949	-8.109119427440447	3.883941858046195	-27.10596124533144	-517.7056279953237	-91.04054692866426	-40.28088474062211	-2.687618354873447	-0.8619369539722991	-0.7800765483019051	9.428582818979686	-2.182898825137278	3.535727653628939	-2.67437269116699	10.33252091987178	10.33252091987144	0.8088071752852776	-0.5045044721697696	3.814692506135257	-0.3155414679343002	-9.372436354709225e-08	1.837477799194802e-07	2.433937605960262e-07	7.011150149506224e-08	-2.592580485788348e-07	-1.502248077373804e-07	-1.171589550447149e-08
0.02	-0.04170750353255267	0.06945891454686408	0.8958574464534297	0.1974590656901589	-0.3217570928390634	-0.4964224623721091	-0.1384323533649603	0.07225965123517911	0.07225965123518033	-0.1743648334495906	-0.1310259651860487	-0.06623065381298106	0.004658717994709783	-0.05519582491973333	-0.01730887834375582	-0.0158103399798765	0.1913417500970023	-0.04382535416668592	0.07012158452622012	-0.05198857462679441	0.2087181268800728	0.2087181268800685	0.01676142295911116	-0.01141769919924896	0.07709088168095975	-0.006051573500600824	0.09823489577505021	-0.123146125826102	-0.0346026038622117	-0.2526929302893987	0.2327040207716365	-0.002250584669494499	-0.03978738009208618	39.85315035637108	-8.675301588679631	4.102351071556539	-24.60474152616943	-517.5762196064289	-92.03458930057141	-40.31168545179538	-2.808564257491267	-0.8702070140457395	-0.7967216537478315	9.597901288400308	-2.136372925687749	3.362202056448166	-2.318029349012423	10.35826873189323	10.35826873189404	0.8894320256208464	-0.6801960909253179	3.805116322509861	-0.2694674246451754	-1.36659057906822e-07	2.340936403243953e-07	3.298767304264561e-07	1.103836667101703e-07	-4.744369685680967e-07	-2.171484366305725e-07	-1.4547932326202e-08
0.03	-0.04239183337785623	0.06924319489201929	0.8956605224206687	0.1998350526523133	-0.3223000985863066	-0.4955520271629468	-0.1390728647539429	0.07485030235244605	0.07485030235243448	-0.1741557762590807	-0.1311676837532632	-0.0652748157875615	0.00458401864927545	-0.0815349530364434	-0.02578016255366467	-0.02356921252825872	0.2834144158965515	-0.06465058240090107	0.103817069127242	-0.07588976730694218	0.3089363214461854	0.3089363214461821	0.02501759832103207	-0.01688370241855061	0.1139183931717638	-0.008840696725301612	0.09408230582611858	-0.1182475021056865	-0.03377843592460995	-0.2478777043509675	0.2268184265227243	-0.002713903726659185	-0.03638006384140834	37.95505925118195	-8.26088741270004	4.172376278336936	-23.53199232156273	-517.7070617721208	-90.66175493372002	-40.36151906412716	-2.526324968324717	-0.8273333738778489	-0.7647777055834009	8.945740648043905	-2.03688786532364	3.350923302662886	-2.392573848391102	9.78223147111432	9.782231471113967	0.7889294292337974	-0.473419230591291	3.597815232010554	-0.2765687399358453	-1.701292429200168e-07	2.409874357693444e-07	3.999047228211459e-07	1.391567623504861e-07	-6.435739927043217e-07	-2.749831022224547e-07	-2.019263786956048e-08
0.04	-0.04333550208023504	0.06894441354519301	0.8953861481323839	0.20311852455693	-0.3230476146344999	-0.4943490967796305	-0.1399456699939015	0.07842886274578614	0.07842886274578759	-0.1738651134874291	-0.1313627857113324	-0.06395545331330484	0.004482841277883388	-0.1070635963357332	-0.03392121674005089	-0.03130039108464549	0.3728387385885714	-0.0847274143565284	0.1366206193576123	-0.09844734482212086	0.4062999820980595	0.4062999820980527	0.03308253919319847	-0.02209437736419532	0.1497957714483653	-0.01134717869213378	0.08992971587720418	-0.1133488783852623	-0.03295426798682696	-0.2430624784125478	0.2209328322738191	-0.003177222783812884	-0.03297274759072971	36.12020750783635	-7.856733970679842	4.243111205026804	-22.6772003375998	-516.9557322569569	-89.11582161327028	-40.42870974952984	-2.646467294007381	-0.8041610093410698	-0.7911828553487432	9.068232666894415	-1.986693669970199	3.183815182317871	-2.049306316018708	9.787361949045506	9.787361949045426	0.8511851276699135	-0.6291304361938916	3.615089679669504	-0.2129391730713817	-2.034042834106026e-07	2.469853123491395e-07	4.695934373305628e-07	1.676927637727649e-07	-8.11761699400278e-07	-3.326303665091554e-07	-2.589533658243707e-08
0.05	-0.04453089428201661	0.06856571617793247	0.8950343424597561	0.2072842952698732	-0.3239921291037013	-0.4928229992207906	-0.1410369056161606	0.08296766357597439	0.08296766357597145	-0.1734946057815186	-0.1316094456516118	-0.06228193036561228	0.004358105753465511	-0.1318682851806431	-0.04177621962810956	-0.03907223701147701	0.4598895969614087	-0.1040387423500527	0.1684602581756557	-0.1195951919877092	0.5009826485025423	0.5009826485025409	0.04098536611971215	-0.02718617600639189	0.1847315707987652	-0.01355170051834797	0.08510085185634991	-0.1091563288109882	-0.0319340599281529	-0.2376292911578574	0.2128577077289411	-0.002220232066784633	-0.02914454223361665	33.61447988093757	-7.933478142307492	4.369407498082183	-21.27345400472772	-516.4135880161083	-88.70657487401719	-40.51116938569878	-2.375501464319816	-0.7698305964085763	-0.7720732083687823	8.459612230431622	-1.882928811463094	3.16318146540862	-2.116835770817854	9.23709389575215	9.237093895753006	0.7548872261717599	-0.4414312521569324	3.406230656909142	-0.2170659435919375	-2.235311325226869e-07	2.384013162318447e-07	5.146562441128863e-07	1.841790506730496e-07	-9.196774307407494e-07	-3.722659889447468e-07	-3.004772854230286e-08
0.06	-0.04596993972915987	0.06810973664821778	0.894604440778456	0.2123077945281405	-0.3251256721423225	-0.4909826766270003	-0.1423334820808725	0.0884389660521228	0.08843896605212326	-0.1730460586561493	-0.1319054689131079	-0.06026436830557885	0.00421275355954636	-0.1557942454090586	-0.0493776492308862	-0.04691959281905659	0.5443844476523787	-0.1225331282403604	0.1994656263481427	-0.1395155133128797	0.5928003112911241	0.5928003112911278	0.04869042308741429	-0.03196704160556055	0.2186035939165231	-0.01547051259238105	0.08027198783551619	-0.1049637792367086	-0.03091385186941239	-0.232196103903165	0.2047825831840674	-0.001263241349748851	-0.02531633687649472	31.1660216608562	-8.018994146138732	4.495669064090208	-20.06818236654649	-515.0725311719484	-88.14042581241206	-40.60654094353529	-2.470721570708648	-0.7534463522845256	-0.8062848314983572	8.557031130520922	-1.823305249326908	3.016961053206613	-1.803801147935256	9.214361225865298	9.214361225865126	0.8116311359075762	-0.5669438275882718	3.402334433141256	-0.1557972226350916	-2.43104373576729e-07	2.292033465273041e-07	5.586821705698585e-07	2.001579811724081e-07	-1.025055394697832e-06	-4.111432264602914e-07	-3.413484442835765e-08
0.07000000000000001	-0.04764456623027934	0.06757905398140809	0.8940954611991468	0.2181648027127016	-0.3264401312246766	-0.4888369181835097	-0.1438225090541102	0.09481518212920119	0.09481518212919711	-0.1725213260999111	-0.1322485522081407	-0.05791294610285475	0.004049824278556196	-0.178987830316178	-0.05670910078098955	-0.05490074690363066	0.6265928052686901	-0.1402170376794531	0.2295462758638017	-0.158093714577031	0.6819663007531603	0.6819663007531606	0.05621391071692619	-0.03659770547514671	0.2515096427732911	-0.0170594092397258	0.07550933048560707	-0.1006004099297557	-0.02995561987140604	-0.2277841964398819	0.1978192760073616	-0.0006553805287920397	-0.02155816879378561	29.03844042206552	-8.004372790398017	4.600604060002734	-18.97524845751373	-514.04679933377	-87.33918425421083	-40.71216297230808	-2.222206910525757	-0.7154868282060829	-0.7979005644559808	7.989049921616862	-1.719779452521662	2.9825727943639	-1.855404602288625	8.696234177187314	8.696234177186957	0.7164897846884475	-0.4032670566099841	3.209049979795215	-0.1521437135140715	-2.523710731703667e-07	1.872918484212908e-07	5.850536189627153e-07	2.031544656262224e-07	-1.07905178715407e-06	-4.404391844177177e-07	-3.970511993105996e-08
0.08	-0.04954683457242795	0.06697655834473124	0.8935058961054881	0.2248311568423171	-0.3279271985336864	-0.486394562066141	-0.1454914330373152	0.1020687613750574	0.1020687613750571	-0.1719226022257458	-0.1326363700198729	-0.05523760143799273	0.003872664465546601	-0.2013226136158072	-0.06374024320431633	-0.06303669568897961	0.7062536366622294	-0.1570547735713952	0.2587851611241967	-0.1754949153065476	0.7682729450477775	0.7682729450477762	0.06348868667505767	-0.04091394494337725	0.2833880863440862	-0.01831661899626566	0.07074667313572205	-0.09623704062279757	-0.02899738787333161	-0.2233722889765965	0.19085596883066	-4.751970782803106e-05	-0.01780000071106416	26.96214348978928	-7.996508822731841	4.704078845779524	-18.05823671677426	-512.306195988274	-86.39746502265767	-40.82519800148726	-2.298961249210747	-0.6933845269290763	-0.8372437716533332	8.047525885966461	-1.654070539896792	2.848608202153821	-1.568401041008433	8.642492192381479	8.642492192381638	0.7618888016314616	-0.5040589473171083	3.196813375946822	-0.08945984447404669	-2.609728346052685e-07	1.432698000958277e-07	6.102860687707905e-07	2.05313372915808e-07	-1.129733239513479e-06	-4.691169953068784e-07	-4.537108315096531e-08
0.09	-0.05166886307072446	0.06630523595531868	0.8928340026979661	0.2322828035842697	-0.3295784999293184	-0.4836645165580956	-0.1473278731824362	0.1101722438027247	0.1101722438027263	-0.1712522228374034	-0.1330666722477832	-0.05224819420439148	0.003684721740292844	-0.2229405858391161	-0.07047258043521873	-0.07137601330056648	0.7836575065968232	-0.173059849675198	0.2870840419281422	-0.1916076655389314	0.8519500714005706	0.8519500714005734	0.0705417035104753	-0.04509551387772642	0.3143225517845739	-0.01921191772310082	0.06590773341219681	-0.0920809947723432	-0.02805018679202771	-0.2195431883345806	0.1841027915167159	0.0007865051661078487	-0.01401045665209336	24.93549039103525	-8.083512695319216	4.808916460549145	-17.09573461385047	-510.9206698743743	-85.68678517042129	-40.94263910107102	-2.07184936306427	-0.6553690867947117	-0.8376066444273035	7.524059149073202	-1.551963860768676	2.799455092349626	-1.604894787820178	8.159311659662796	8.159311659663304	0.6702849518874128	-0.3674697853688492	3.016130061267541	-0.08065336338489111	-2.604506029135836e-07	7.358806062712104e-08	6.165230672575216e-07	1.964566886533345e-07	-1.137994142466032e-06	-4.871896621606516e-07	-5.172955868137276e-08
